<svg width="98" height="30" viewBox="0 0 98 30" fill="none" xmlns="http://www.w3.org/2000/svg">
<g id="Group">
<path id="Vector" d="M51.0124 7.5974H48.1162L46.4828 10.2156H49.3775L51.0124 7.5974ZM58.5255 14.4863C57.0083 14.6104 54.3277 15.952 52.8678 18.8835C51.4078 21.8149 51.4025 23.6245 51.4025 23.6245C51.4025 23.6245 52.1724 22.7901 53.3528 21.9164C54.5332 21.0428 55.4117 20.7324 55.4117 20.7324C55.4117 20.7324 55.6307 19.6561 56.1758 18.5304C56.7059 17.4355 57.5471 16.2955 58.588 16.0368C60.6977 15.5118 59.6874 19.3184 58.1378 21.8005C57.3049 23.1345 54.3505 26.9684 51.8071 26.9684C49.2636 26.9684 48.7728 24.5442 49.3092 22.2776C49.8451 20.0115 50.587 17.1323 54.2977 11.9007C58.0084 6.66911 62.0249 3.56763 64.3498 2.26429C66.7377 0.926456 67.7107 1.51274 67.7107 1.51274C67.7107 1.51274 64.6624 3.36885 62.9281 5.60191C61.27 7.73631 60.2805 10.138 61.05 11.3149C61.7826 12.4362 64.3653 12.4573 67.2092 8.39828C70.0162 4.3915 69.3073 2.00898 69.3073 2.00898C69.3073 2.00898 69.6465 1.89977 69.8743 1.86959C71.2431 1.68949 72.3397 2.04634 74.0376 2.9071C75.8164 3.80904 77.523 5.2556 79.8614 6.4392C80.5655 5.67664 81.349 4.86666 82.1733 4.07632C79.0207 2.55935 76.6275 0.397168 73.5356 0.189764C70.8443 0.00966208 68.7225 0.979146 68.7225 0.979146C68.7225 0.979146 67.9016 -0.125893 65.3693 0.234789C62.837 0.59595 55.0352 3.82054 48.3973 14.3287C42.3955 23.8295 45.2234 29.2743 49.5374 29.212C54.2139 29.144 58.6626 24.0029 60.1681 19.7634C61.6736 15.5238 59.8943 14.3747 58.5255 14.4863ZM67.7059 5.65796C66.9199 7.5519 65.7628 8.87536 64.6241 9.88603C63.1636 11.1827 62.3622 11.1391 62.0152 10.8785C61.1091 10.1964 62.3249 7.62423 64.4351 5.3241C66.5366 3.03307 68.346 2.32033 68.346 2.32033C68.346 2.34715 68.6469 3.38705 67.7059 5.65796ZM93.7474 2.89608C91.6076 4.2569 88.6406 5.48935 85.7929 5.21776C85.0728 5.95685 84.3005 6.8085 83.5257 7.74014C88.4681 8.70388 92.7913 5.67712 95.093 3.09821C96.5287 1.49023 97.2376 0.0546875 97.2376 0.0546875C97.2376 0.0546875 95.8668 1.54819 93.7474 2.89608Z" fill="#343A40"/>
<path id="Vector_2" d="M91.4094 14.8362H88.364L87.8692 15.5921C87.8692 15.5921 87.248 14.4842 86.196 14.5019C84.3935 14.5326 82.5895 15.8929 80.4933 18.2524C78.9568 19.9811 76.41 23.8298 76.41 23.8298C76.41 23.8298 74.4557 26.8068 73.4672 26.5735C71.7819 26.1755 74.8817 20.0113 74.8817 20.0113C74.8817 20.0113 76.5112 19.0164 78.6229 17.26C79.9525 16.1544 81.4823 14.6336 82.8885 13.224C84.1672 11.9417 85.6742 10.2005 87.1065 8.29319C86.7397 8.35067 86.3637 8.38947 85.9804 8.40815C84.6959 10.0827 83.3246 11.5815 82.1582 12.7727C80.4221 14.546 78.825 15.9969 77.6645 16.9223C76.5524 17.8084 75.8391 18.2074 75.8391 18.2074C75.8391 18.2074 77.9605 13.9008 81.4963 9.14245C85.0321 4.38461 89.9829 -0.035549 89.5947 2.06149C89.4838 2.66358 89.1053 3.52721 88.534 4.55225C88.9362 4.46939 89.3268 4.36592 89.7038 4.24809C90.5556 2.50982 90.8458 1.07715 90.2101 0.663303C87.6158 -1.02563 81.0171 5.96289 77.709 10.0219C74.4015 14.0809 71.4079 20.2838 71.4079 20.2838C71.4079 20.2838 70.8904 20.4984 70.3181 20.6057C69.9571 20.6737 69.803 20.6589 69.7439 20.6359C69.7143 20.6239 69.711 20.6038 69.711 20.6038C69.711 20.6038 72.6207 15.2266 69.6417 14.5134C66.7668 13.8256 61.7856 19.083 60.0145 22.7401C58.7992 25.2491 58.1136 28.4076 60.1977 29.1596C62.4547 29.9744 66.2885 25.901 67.1898 24.7174C68.0911 23.5333 69.2162 21.5647 69.2162 21.5647C69.2162 21.5647 69.7667 21.5359 70.0676 21.4923C70.6432 21.4085 70.9127 21.3386 70.9127 21.3386C70.9127 21.3386 70.5395 22.3047 70.1359 23.5295C69.3834 25.8133 68.7045 29.081 71.4137 29.2348C73.1397 29.332 75.672 26.2507 75.672 26.2507C75.672 26.2507 74.9907 28.9905 77.2308 29.2348C78.8846 29.4149 81.2914 26.8892 81.2914 26.8892C81.2914 26.8892 80.7671 29.0652 82.4436 29.2568C83.8789 29.4211 85.9165 27.7576 87.5872 25.9274C89.4116 23.929 90.811 21.7405 90.811 21.7405H89.7503C89.7503 21.7405 87.4026 25.263 85.7541 26.2056C84.4008 26.9797 84.8645 25.7396 85.2749 25.0896C85.7275 24.3725 91.4079 14.8362 91.4079 14.8367L91.4094 14.8362ZM68.2064 21.4708C68.1647 21.5652 67.4025 22.8762 66.587 23.907C65.7085 25.0177 64.1003 26.6894 63.1336 26.3359C61.6223 25.7832 63.2853 22.5284 64.3726 20.9496C65.4599 19.3709 65.5835 19.2641 65.614 19.2229C65.6446 19.1817 65.6751 19.1438 65.7017 19.1927C65.7284 19.2416 66.0744 19.8901 66.7576 20.4529C67.4437 21.0181 68.1037 21.3166 68.157 21.3352C68.2103 21.3539 68.2486 21.3764 68.2064 21.4703V21.4708ZM68.8862 20.2977C68.7908 20.4548 68.7225 20.4625 68.5243 20.4103C68.1754 20.3169 66.73 19.6564 66.7411 18.1911C66.7513 16.7632 68.7874 15.3646 69.5859 15.9624C70.3312 16.5199 69.975 17.9454 69.694 18.6725C69.4134 19.3991 68.9488 20.1948 68.8862 20.2977ZM82.7213 23.8298C82.3191 24.3749 81.9828 24.8673 81.6795 25.2132C81.0312 25.9532 80.6081 26.2976 80.2312 26.3886C80.0412 26.4341 79.8057 26.4231 79.6497 26.3297C79.0963 25.9968 79.484 24.7006 80.4473 22.9581C81.3287 21.3654 82.3472 19.7718 84.0214 17.9373C85.7023 16.0955 86.3453 16.0069 86.8158 16.028C87.2117 16.0448 87.2679 16.4562 87.2679 16.4562C87.2679 16.4562 87.2398 16.5515 87.1768 16.6593C86.622 17.6101 83.8271 22.3311 82.7208 23.8298H82.7213ZM37.7995 26.1338C35.9529 25.0058 33.5839 24.282 30.8621 24.2585C23.8506 24.1982 16.2164 27.5655 11.0457 27.611C4.9471 27.6637 4.64328 23.0256 5.09537 20.4788C6.06836 14.9919 10.0054 9.75748 12.5367 6.99752C15.0685 4.23755 17.7215 2.09597 19.9272 1.54848C22.1329 1.00099 21.9255 2.65927 21.6556 2.88583C21.3769 2.89158 20.8425 2.95098 20.5392 3.15838C20.0643 3.48218 19.43 4.07518 19.3903 5.01544C19.3219 6.46392 21.2156 6.71778 22.5845 3.6848C23.5182 1.61602 22.0374 0.212091 20.8076 0.0770144C19.1209 -0.108835 16.543 0.470747 13.4661 2.42552C8.11077 5.82733 0.94757 13.3815 0.764893 21.763C0.660713 26.5443 3.82051 29.2348 8.15583 29.2348C12.4912 29.2348 18.3771 26.6104 24.1244 26.5433C27.683 26.5132 29.9861 27.7461 31.1524 29.754C31.1524 29.754 32.3114 27.8481 34.8927 27.7461C37.4463 27.6445 40.2577 28.352 42.5656 29.9557C41.7957 28.8559 39.619 27.2451 37.799 26.1338H37.7995Z" fill="#343A40"/>
<path id="Vector_3" d="M21.8319 7.304C18.8926 6.56347 14.0112 11.5096 11.9543 15.535C10.6857 18.0181 10.1294 21.1388 12.3879 21.9507C14.6465 22.7626 18.4783 18.6921 19.3796 17.5085C20.2809 16.3244 21.7559 13.9529 21.7559 13.9529C21.7559 13.9529 22.2084 13.8667 22.505 13.7987C22.8015 13.7307 23.2808 13.5956 23.2808 13.5956C23.2808 13.5956 22.725 14.5746 22.2235 15.5781C21.6289 16.768 20.0134 20.7288 23.1325 21.9167C26.1125 23.0514 30.3548 18.3194 30.5777 18.2298C30.5777 18.2298 29.315 21.4544 31.2764 21.9507C33.4288 22.4948 35.7877 19.7689 35.7877 19.7689C35.7877 19.7689 35.291 21.8151 36.968 22.0072C39.9713 22.3506 45.2835 14.7571 45.2835 14.7571H44.2223C44.2223 14.7571 41.519 18.1958 40.2189 18.9062C38.9189 19.6165 39.3865 18.3544 39.7397 17.7901C40.1903 17.0721 45.9333 7.58612 45.9333 7.58612H42.8879L42.5346 8.1384C42.5346 8.1384 41.9071 7.19143 40.858 7.25897C37.8058 7.45584 34.1741 12.2649 32.577 14.3845C30.9804 16.5045 27.5357 20.552 25.722 19.8306C23.7455 19.0441 25.7108 15.4335 27.0109 13.3135C28.4263 11.0057 30.9348 8.7199 31.9267 8.70218C33.1473 8.67967 32.6681 9.77321 32.6681 9.77321C32.6681 9.77321 31.7557 9.66065 31.0942 10.4836C30.6262 11.0655 30.2385 11.9153 30.6833 12.3775C31.4019 13.1243 32.3376 12.366 32.8963 11.5201C34.6383 8.8842 33.3639 7.49512 31.9955 7.2925C29.0804 6.85997 26.395 10.5621 24.3536 11.9378C22.9372 12.8915 22.3456 12.8172 22.3456 12.8172C22.3456 12.8172 24.8028 8.05219 21.8324 7.30352L21.8319 7.304ZM35.0288 15.8282C35.9102 14.235 37.111 12.697 38.6737 10.769C40.2364 8.84109 41.0141 8.68494 41.4846 8.70601C41.8805 8.72326 41.9367 9.13423 41.9367 9.13423C41.9367 9.13423 38.5414 14.9823 37.3096 16.6511C36.9075 17.1962 36.5634 17.6579 36.2601 18.0042C35.6118 18.7443 35.1408 19.1021 34.7774 19.1912C34.5874 19.2372 34.3519 19.2257 34.1954 19.1318C33.642 18.7989 34.0641 17.5703 35.0284 15.8282H35.0288ZM20.6191 13.9304C20.5769 14.0243 19.6074 15.6093 18.7923 16.6401C17.9143 17.7509 16.2915 19.4292 15.3248 19.0757C13.8135 18.523 15.4256 15.2907 16.513 13.7125C17.6003 12.1337 17.7597 11.9306 17.7908 11.8899C17.8213 11.8482 17.8513 11.8104 17.878 11.8597C17.9046 11.9086 18.2506 12.6117 18.9997 13.085C19.7488 13.5587 20.5169 13.7766 20.5702 13.7953C20.6235 13.814 20.6617 13.837 20.6196 13.9304H20.6191ZM21.8833 11.4631C21.6023 12.1907 21.3513 12.6491 21.2994 12.7573C21.2161 12.9307 21.0072 12.8752 21.0072 12.8752C20.7693 12.8646 18.9198 12.4474 18.9304 10.9822C18.9406 9.55431 20.9772 8.15565 21.7753 8.75343C22.5205 9.31098 22.1644 10.7365 21.8833 11.4631ZM89.1179 27.4965C88.9401 27.3968 88.7424 27.3475 88.5248 27.3475C88.3073 27.3475 88.1096 27.3973 87.9317 27.4965C87.7539 27.5961 87.6143 27.7312 87.5121 27.9031C87.4103 28.0746 87.359 28.2614 87.359 28.4626C87.359 28.6638 87.4099 28.8539 87.5121 29.0245C87.6139 29.1945 87.7539 29.3296 87.9317 29.4287C88.1096 29.5284 88.3073 29.5777 88.5248 29.5777C88.7424 29.5777 88.9401 29.5279 89.1179 29.4287C89.2958 29.3296 89.4353 29.1945 89.5375 29.0245C89.6393 28.8544 89.6907 28.6671 89.6907 28.4626C89.6907 28.2581 89.6398 28.0746 89.5375 27.9031C89.4358 27.7316 89.2958 27.5961 89.1179 27.4965ZM89.3268 28.9243C89.2497 29.0604 89.1412 29.1672 89.0021 29.2453C88.863 29.3229 88.7036 29.3617 88.5248 29.3617C88.346 29.3617 88.1866 29.3229 88.0475 29.2453C87.9085 29.1677 87.8004 29.0609 87.7229 28.9243C87.6458 28.7883 87.6071 28.6341 87.6071 28.4626C87.6071 28.2911 87.6458 28.1412 87.7229 28.0051C87.7999 27.8691 87.909 27.7623 88.0495 27.6842C88.19 27.6061 88.3484 27.5678 88.5248 27.5678C88.7012 27.5678 88.8597 27.6066 89.0002 27.6842C89.1407 27.7618 89.2497 27.8686 89.3268 28.0051C89.4038 28.1412 89.4426 28.294 89.4426 28.4626C89.4426 28.6312 89.4038 28.7883 89.3268 28.9243Z" fill="#343A40"/>
<path id="Vector_4" d="M88.9629 28.4445C88.9958 28.3913 89.0123 28.3319 89.0123 28.2668C89.0123 28.1767 88.9827 28.1015 88.9236 28.0402C88.8645 27.9789 88.785 27.9482 88.6862 27.9482H88.095V28.9575H88.3552V28.5896H88.5534L88.7933 28.9575H89.0908L88.8223 28.5652C88.8829 28.5379 88.9299 28.4976 88.9629 28.4445ZM88.7148 28.3381C88.6954 28.3559 88.6692 28.3645 88.6363 28.3645H88.3552V28.1686H88.6363C88.6692 28.1686 88.6954 28.1777 88.7148 28.1949C88.7341 28.2126 88.7438 28.2366 88.7438 28.2663C88.7438 28.296 88.7341 28.3199 88.7148 28.3377V28.3381Z" fill="#343A40"/>
</g>
</svg>
