<svg width="100" height="100" viewBox="0 0 100 100" fill="none" xmlns="http://www.w3.org/2000/svg">
<g id="Group">
<path id="Vector" fill-rule="evenodd" clip-rule="evenodd" d="M9.10938 66.2936H12.5536V46.633H9.10938V39.2854H22.8003V42.9019H23.0296C24.5507 41.151 26.4738 38.6826 30.5209 38.6826C33.8214 38.6826 36.1467 40.1461 37.9832 43.3034C41.6282 39.9453 44.0971 38.6826 47.1103 38.6826C51.961 38.6826 56.0942 42.3276 56.0942 50.9094V66.2936H59.7397V73.6418H45.8481V52.0855C45.8481 48.1541 44.9869 46.5464 42.8344 46.5464C41.6287 46.5464 40.7105 47.0346 39.4477 48.2973V66.2931H42.3182V73.6413H29.2011V52.085C29.2011 48.096 28.369 46.5459 26.245 46.5459C24.9247 46.5459 23.9198 47.0911 22.8008 48.2968V66.2926H25.6998V73.6407H9.10938V66.2936ZM63.529 66.2936H67.2596V46.633H63.529V39.2854H77.5067V66.2942H80.8068V73.6423H63.5284L63.529 66.2936ZM66.4565 29.6131C66.4559 28.8289 66.6099 28.0522 66.9097 27.3276C67.2095 26.603 67.6493 25.9446 68.2038 25.3901C68.7583 24.8356 69.4167 24.3958 70.1413 24.096C70.8659 23.7962 71.6425 23.6422 72.4267 23.6428C73.2109 23.6423 73.9875 23.7963 74.7121 24.0962C75.4367 24.396 76.095 24.8358 76.6495 25.3902C77.204 25.9447 77.6438 26.6031 77.9436 27.3277C78.2435 28.0523 78.3975 28.8289 78.397 29.6131C78.3975 30.3972 78.2434 31.1737 77.9435 31.8983C77.6436 32.6228 77.2038 33.2811 76.6494 33.8355C76.0949 34.39 75.4365 34.8297 74.712 35.1295C73.9874 35.4293 73.2109 35.5833 72.4267 35.5828C71.6426 35.5835 70.866 35.4295 70.1413 35.1298C69.4167 34.83 68.7583 34.3903 68.2038 33.8358C67.6493 33.2814 67.2095 32.623 66.9097 31.8984C66.6099 31.1738 66.4559 30.3972 66.4565 29.6131Z" fill="#343A40"/>
<path id="Vector_2" fill-rule="evenodd" clip-rule="evenodd" d="M84.623 62.7058H95.5877V73.6419H84.623V62.7058Z" fill="#343A40"/>
</g>
</svg>
