<svg width="100" height="100" viewBox="0 0 100 100" fill="none" xmlns="http://www.w3.org/2000/svg">
<g id="Group">
<path id="Vector" fill-rule="evenodd" clip-rule="evenodd" d="M61.8988 33.6571V31.6772H53.9785V42.5476H61.8988V40.7546H56.1824V37.8035H61.1885V35.861H56.1824V33.6571H61.8988ZM59.6949 43.6683V47.8521H55.3606V43.6683H53.1203V54.5018H55.3606V49.6451H59.6949V54.5018H61.8988V43.6683H59.6949ZM61.8988 57.5639V55.6225H53.9785V66.6412H61.8988V64.6625H56.1824V61.7482H61.1885V59.9557H56.1824V57.5639H61.8988ZM52.7089 31.6772H50.5049V35.861H46.1717V31.6772H43.9678V42.5476H46.1717V37.6914H50.5049V42.5476H52.7089V31.6772ZM34.4795 31.6772V33.6571H37.8415V42.5476H40.0455V33.6571H43.4074V31.6772H34.4795ZM27.5315 43.3694C24.0574 43.3694 22.227 45.3493 22.227 49.0848C22.227 53.0071 24.0574 54.9496 27.5315 54.9496C31.0055 54.9496 32.7986 53.0071 32.7986 49.0848C32.7986 45.3493 31.0055 43.3694 27.5315 43.3694ZM24.6178 49.0848C24.6178 46.582 25.589 45.3493 27.5315 45.3493C29.6234 45.3493 30.5946 46.582 30.5946 49.0848C30.5946 51.7375 29.6234 53.0071 27.5315 53.0071C25.589 53.0071 24.6178 51.7375 24.6178 49.0848ZM19.0518 43.6683V51.3261L14.7186 43.6683H12.3652V54.5018H14.4571V46.8808L18.9024 54.5018H21.2558V43.6683H19.0518ZM29.3245 60.1046V57.5639H34.8904V55.6225H27.1206V66.6412H29.3245V62.0471H34.2181V60.1046H29.3245ZM52.2985 45.6108V43.6683H43.4074V45.6108H46.7321V54.5018H48.9734V45.6108H52.2985ZM38.5139 50.3554C39.2237 50.3554 39.784 50.4669 40.0455 50.7658L40.4564 54.5018H42.9592V54.2403C42.6977 54.0904 42.5483 53.4185 42.5483 52.1479C42.5483 50.6169 41.9879 49.7945 41.1661 49.3836C42.2868 48.9354 42.8471 48.1136 42.8471 46.7314C42.8471 44.7889 41.7265 43.6683 39.3731 43.6683H33.9192V54.5018H36.1605V50.3554H38.5139ZM36.1605 48.5245V45.6108H38.9248C40.0455 45.6108 40.6058 46.0217 40.6058 46.9929C40.6058 47.9641 40.0455 48.5245 38.8127 48.5245H36.1605ZM40.0455 55.6225H37.3932L33.5083 66.6412H35.8617L36.7209 64.251H40.7552L41.4276 66.6412H43.8184L40.0455 55.6225ZM38.6633 58.1242L40.0455 62.4585H37.2812L38.6633 58.1242ZM50.9164 59.2449H53.1203C53.0077 58.2742 52.7089 57.4524 52.036 56.7421C51.0653 55.9203 49.9446 55.36 48.413 55.36C46.8815 55.36 45.7608 55.9203 44.7896 56.892C43.9678 57.8628 43.4074 59.2449 43.4074 61.0758C43.4074 64.9608 45.0511 66.9022 48.2636 66.9022C51.0653 66.9022 52.5963 65.5201 53.1203 62.8684H50.9164C50.6175 64.1379 49.6458 64.8108 48.413 64.8108C46.5826 64.8108 45.7608 63.5786 45.7608 61.1874C45.7608 58.573 46.5826 57.3024 48.413 57.3024C49.6458 57.3024 50.356 58.0127 50.9164 59.2449ZM23.2356 66.4923C23.6092 66.4923 23.908 66.3424 24.1327 66.1561C24.3194 65.932 24.4683 65.6332 24.4683 65.2228C24.4683 64.774 24.3189 64.4752 24.1327 64.2884C23.9085 64.1021 23.6097 63.9895 23.2356 63.9895H23.1983C22.75 63.9895 22.4512 64.1021 22.2644 64.2884C22.0781 64.4746 21.9655 64.774 21.9655 65.2228V65.2591C21.9655 65.6332 22.0776 65.932 22.2644 66.1561C22.4512 66.3424 22.7505 66.4923 23.1983 66.4923H23.2356ZM23.1983 66.7912C22.6753 66.7912 22.3017 66.6049 22.0402 66.3424C21.7788 66.0809 21.6667 65.7079 21.6667 65.2591V65.2228C21.6667 64.6988 21.7788 64.3257 22.0402 64.0648C22.3017 63.8033 22.6753 63.6907 23.1983 63.6907H23.2356C23.6839 63.6907 24.0574 63.8033 24.3189 64.0648C24.5804 64.3263 24.7672 64.6993 24.7672 65.2228C24.7672 65.7084 24.5804 66.0809 24.3189 66.3424C24.1772 66.4854 24.0084 66.5988 23.8224 66.6758C23.6364 66.7529 23.4369 66.7921 23.2356 66.7912H23.1983ZM23.3477 65.0728H23.385C23.5345 65.0728 23.6092 64.9976 23.6092 64.8114V64.774C23.6092 64.774 23.5718 64.774 23.5718 64.7366C23.5345 64.6993 23.4597 64.6993 23.3477 64.6993H22.9368V65.0734L23.3477 65.0728ZM23.6092 65.3343L23.908 65.7084C23.9454 65.7826 23.908 65.8573 23.8707 65.8947C23.7959 65.9699 23.6839 65.932 23.6465 65.8947L23.273 65.3717H22.9368V65.7821C22.9368 65.8573 22.8621 65.932 22.7873 65.932C22.7126 65.932 22.6379 65.8568 22.6379 65.7821V64.5499C22.6379 64.4746 22.7126 64.401 22.7873 64.401H23.385C23.5345 64.401 23.6839 64.4373 23.7586 64.5125C23.7959 64.5499 23.8333 64.5499 23.8333 64.5877C23.908 64.663 23.908 64.7366 23.908 64.8119C23.908 65.1102 23.8333 65.2591 23.6092 65.3343ZM63.4299 31.6772C70.3785 31.6772 76.3921 34.2174 81.2483 39.0736C86.2539 44.0792 88.7572 50.056 88.7572 57.0409V66.6412H78.5966V56.7421C78.5966 52.8582 77.2145 49.4957 74.4128 46.7314C73.7399 46.0217 73.0307 45.4613 72.2089 44.901C69.9675 43.3694 67.3153 42.697 64.551 42.697H63.4304V31.6772H63.4299ZM77.6243 66.6412H69.705V58.9834C69.705 57.7139 69.2946 56.7421 68.4355 55.9203C67.6137 55.0621 66.493 54.6507 65.3723 54.6507H63.4299V43.6683H64.5505C67.4637 43.6683 69.9665 44.4901 72.2083 46.1711C72.7687 46.4326 73.329 46.9929 73.7394 47.4038C76.3921 50.0565 77.6243 53.1197 77.6243 56.7426V66.6412ZM68.7343 66.6412H63.4293V55.6225H65.3723C66.2315 55.6225 67.0533 55.9203 67.7625 56.5932C68.3229 57.1535 68.7343 58.0127 68.7343 58.9834V66.6412Z" fill="#343A40"/>
</g>
</svg>
