<svg width="100" height="20" viewBox="0 0 100 20" fill="none" xmlns="http://www.w3.org/2000/svg">
<path id="Vector" d="M62.4688 19.8936C61.3937 19.7017 60.1875 19.2067 59.375 18.625C58.65 18.099 57.8125 17.0903 57.4813 16.3478C57.0688 15.4072 56.875 14.448 56.875 13.3465C56.875 9.52846 59.0312 6.97276 62.7188 6.40964C63.4625 6.29826 64.9688 6.29826 65.7438 6.41583C67.5188 6.68192 69.1125 7.52351 70.0813 8.724C71.0188 9.87499 71.4437 11.1992 71.4437 12.9443C71.4437 13.9344 71.3438 14.6275 71.0875 15.4319C70.3313 17.7958 68.3562 19.4604 65.7625 19.9059C65.075 20.0235 63.1625 20.0173 62.4688 19.8936ZM65.0938 18.9158C65.7375 18.7797 66.4562 18.4084 66.95 17.9629C68.2312 16.7933 68.9 14.6337 68.7 12.3379C68.5312 10.4319 68.0437 9.23761 67.0625 8.32177C66.225 7.53588 64.7375 7.16459 63.3875 7.39974C61.5063 7.72771 60.225 9.20667 59.725 11.6448C59.3187 13.6374 59.7875 16.0693 60.8375 17.4431C61.4375 18.2228 62.4125 18.7983 63.4375 18.9653C63.8063 19.0272 64.6875 19.0025 65.0938 18.9158ZM35.4375 19.7698C34.8312 18.9963 26.5625 10.8156 26.3 10.7228C26.1625 10.6794 26.3062 17.7896 26.475 19.4294L26.5125 19.8131H24.8125V19.6151C24.8125 19.5037 24.8563 18.7426 24.9062 17.9257C24.9688 16.849 25 15.073 25 11.4777V6.50865H25.925L26.475 7.11509C27.3375 8.04949 28.9438 9.7141 30.1375 10.9022C32.0875 12.8329 34.4625 15.1349 34.8063 15.4134L35.1375 15.6918L35.1 13.7426C34.9937 8.86014 34.9313 6.6943 34.9 6.60148C34.8688 6.52103 34.9688 6.50865 35.7188 6.50865H36.5812L36.5375 7.39355C36.5187 7.87623 36.4813 10.896 36.4562 14.1077L36.4188 19.9369H35.9938C35.6063 19.9369 35.5625 19.9245 35.4375 19.7698ZM0 13.1609V6.50865H2.81875C5.1875 6.50865 5.7 6.52722 6.08125 6.60766C7.9375 7.02227 8.9875 8.40841 8.85625 10.2648C8.75625 11.651 8.00625 12.7772 6.7875 13.3713C5.875 13.8168 5.4125 13.8973 3.89375 13.9035H2.56875L2.59375 14.12C2.60625 14.2376 2.6375 15.4629 2.65625 16.8428C2.675 18.2228 2.7125 19.4542 2.73125 19.5841L2.76875 19.8131H0V13.1609ZM4.53125 12.8267C5.025 12.6535 5.36875 12.4059 5.6875 11.979C6.09375 11.4468 6.275 10.8651 6.28125 10.0668C6.28125 8.91583 5.85 8.11138 5.0125 7.70296C4.69375 7.54826 4.575 7.52969 3.8875 7.50494C3.4625 7.49875 2.99375 7.50494 2.8375 7.52969L2.5625 7.56682V10.2215C2.5625 12.6968 2.56875 12.8762 2.675 12.901C2.73125 12.9195 3.1 12.9319 3.4875 12.9381C4.03125 12.9443 4.26875 12.9195 4.53125 12.8267ZM9.0625 19.7512C9.0625 19.7141 9.13125 19.5532 9.2125 19.3923C9.29375 19.2314 9.575 18.625 9.83125 18.0495C10.0938 17.4678 10.5063 16.552 10.75 16.0074C11.6938 13.9468 11.75 13.8106 12.75 11.5829C13.7563 9.33044 14.875 6.57053 14.875 6.34776C14.875 6.3292 15.175 6.3292 15.5375 6.33539L16.2 6.35395L16.6063 7.43687C17.35 9.43563 18.2563 11.6324 19.2563 13.8725C19.35 14.0953 19.8188 15.1411 20.2875 16.1931C20.7563 17.2512 21.2625 18.3775 21.4062 18.6992C21.55 19.021 21.7312 19.4047 21.8062 19.5532L21.9375 19.8131H18.9L18.475 18.6869C18.2375 18.0619 17.875 17.1151 17.6625 16.5829L17.2812 15.6052H14.8687C12.6187 15.6052 12.45 15.6114 12.4187 15.7166C12.4 15.7723 12.2438 16.1683 12.0688 16.5891C11.7 17.4864 11.1062 19.0953 10.9875 19.5223L10.9125 19.8131H9.9875C9.39375 19.8131 9.0625 19.7884 9.0625 19.7512ZM16.5063 14.3799L16.675 14.3366L16.3312 13.4393C16.1437 12.9443 15.8812 12.2636 15.7437 11.9233C15.6125 11.5829 15.3625 10.9455 15.2 10.5124C14.9062 9.74504 14.8938 9.72648 14.8188 9.89355C14.775 9.98638 14.5563 10.5 14.3313 11.026C14.1125 11.552 13.8375 12.2079 13.7188 12.4802C13.2188 13.6559 12.95 14.3366 12.975 14.3676C13.0688 14.4604 16.1562 14.4666 16.5063 14.3799ZM41.3312 16.9542C41.3563 15.3762 41.3688 12.3812 41.3563 10.302L41.325 6.50865H44.475C46.9062 6.50865 47.7812 6.52722 48.3312 6.60148C50.1875 6.84281 51.4937 7.49875 52.5187 8.70544C53.4312 9.78217 53.875 11.1312 53.875 12.8143C53.8688 15.7908 52.625 17.9505 50.2562 19.1015C49.7562 19.349 49.2938 19.5099 48.5312 19.6955C48.3063 19.7512 47.225 19.776 44.75 19.7945L41.2812 19.8193L41.3312 16.9542ZM47.6375 18.5879C48.275 18.396 48.9 18.0371 49.4188 17.5606C50.6125 16.4591 51.1437 14.9988 51.1437 12.8515C51.1312 9.47895 49.2125 7.56063 45.85 7.56063C45.5312 7.56063 44.975 7.5792 44.6125 7.59776L43.9562 7.64108L43.9125 8.2042C43.825 9.36756 43.8688 18.5445 43.9625 18.6436C43.9688 18.6497 44.3625 18.6745 44.8438 18.6992C46.175 18.7735 47.1437 18.7302 47.6375 18.5879ZM74.975 18.3775C75.0375 16.552 75.0375 6.83662 74.975 6.65098L74.9313 6.50865H77.9563C81.3438 6.50865 81.625 6.53341 82.4125 6.90469C82.9375 7.15222 83.5125 7.67821 83.7625 8.15469C84.1 8.77969 84.2 9.66459 84.0312 10.4752C83.775 11.6819 82.8875 12.5668 81.45 13.0495C81.1312 13.1547 80.8563 13.2537 80.8375 13.2723C80.8125 13.297 81.3 14.0087 82.5813 15.8094C83.1188 16.5643 84.5125 18.4146 85.1125 19.1634L85.6062 19.7822L83.975 19.8007C83.0812 19.8069 82.3125 19.8007 82.275 19.7884C82.2375 19.776 82.0438 19.4975 81.8375 19.1695C81.0563 17.9072 79.2625 15.2834 78.0687 13.6436C78 13.5445 77.9 13.5074 77.7438 13.5012C77.5375 13.5012 77.525 13.5136 77.5375 13.6745C77.55 13.7673 77.5687 15.1844 77.5875 16.8304L77.6125 19.8131H74.925L74.975 18.3775ZM79.5375 12.5483C80.3438 12.3812 80.9062 11.9294 81.2688 11.1621C81.4438 10.7908 81.4688 10.6794 81.4875 10.0606C81.525 9.01484 81.3 8.42697 80.7063 7.9938C80.1438 7.5792 79.45 7.44925 78.2312 7.52969L77.5 7.57301V12.5668L77.8938 12.5916C78.7438 12.6349 79.175 12.6287 79.5375 12.5483ZM87.2125 19.6151C87.2625 19.5037 87.5188 18.9406 87.7812 18.3589C88.0437 17.7834 88.3438 17.1275 88.4375 16.9047C88.5312 16.6819 88.7063 16.2921 88.8313 16.0384C89.0312 15.599 89.2625 15.104 89.8125 13.8725C89.9437 13.5817 90.125 13.1794 90.2188 12.9752C90.3688 12.6473 90.55 12.2389 91.25 10.6547C91.7937 9.42326 92.4313 7.88242 92.7375 7.03464L92.9875 6.35395L93.6438 6.33539L94.3 6.31682L94.4062 6.64479C94.525 6.99751 94.825 7.80197 95.3187 9.04578C95.6 9.76979 95.775 10.1968 96.3438 11.552C96.7 12.4059 97.4313 14.0891 97.6875 14.646C97.75 14.7822 97.95 15.2401 98.1438 15.6671C98.8 17.1398 99.1813 17.9938 99.5875 18.8787C99.8125 19.3676 100 19.776 100 19.7884C100 19.8007 99.325 19.8131 98.5062 19.8131H97.0125L96.7625 19.1819C96.625 18.8292 96.3938 18.2413 96.25 17.8638C96.1062 17.4926 95.8438 16.8304 95.6687 16.3911L95.3562 15.6052L92.95 15.6176L90.55 15.6361L90.0938 16.7562C89.8438 17.375 89.4938 18.3094 89.3063 18.8478L88.975 19.8131H87.125L87.2125 19.6151ZM94.55 14.3923C94.6562 14.3738 94.75 14.3552 94.75 14.3428C94.75 14.2995 93.2438 10.37 93.0563 9.92449L92.9688 9.7141L92.725 10.2958C92.5938 10.6114 92.3938 11.094 92.275 11.3663C92.1625 11.6386 91.8438 12.4121 91.5625 13.0866C91.275 13.7611 91.0687 14.3304 91.0938 14.3552C91.1875 14.448 94.0125 14.479 94.55 14.3923ZM62.5687 5.5495C62.4375 5.1287 62.4438 5.09776 62.6188 5.06063C62.975 4.98019 64.8 4.94925 65.3375 5.01732C65.6438 5.05445 65.9 5.09157 65.9125 5.10395C65.925 5.11633 65.8875 5.25865 65.8375 5.43192L65.7375 5.73514H62.625L62.5687 5.5495ZM62.375 4.51608C62.1 4.21905 62.3187 3.724 62.725 3.724C63.1062 3.724 63.3188 4.1943 63.0875 4.51608C62.9563 4.70791 62.5563 4.70791 62.375 4.51608ZM65.2562 4.49133C65.0812 4.27474 65.0938 4.0891 65.2812 3.88489C65.4812 3.67449 65.7625 3.66831 65.9688 3.8787C66.275 4.18192 66.0687 4.65222 65.625 4.65222C65.4375 4.65222 65.3562 4.61509 65.2562 4.49133ZM63.9688 4.51608C63.65 4.349 63.5938 3.99628 63.8438 3.75494C64.0312 3.56311 64.2562 3.55692 64.475 3.74256C64.7 3.94058 64.7 4.25618 64.4688 4.4542C64.2875 4.60271 64.1562 4.62128 63.9688 4.51608ZM61.725 2.78341C61.0625 0.654693 60.9375 0.240089 60.95 0.227713C60.9813 0.196773 63 3.2042 63 3.27227C63 3.3094 62.8062 3.35271 62.5687 3.37747C62.3312 3.39603 62.0938 3.43316 62.0375 3.45172C61.9625 3.47648 61.9 3.34034 61.725 2.78341ZM66.0938 3.40841C65.9563 3.38365 65.7375 3.3589 65.6125 3.3589C65.4875 3.35271 65.3688 3.33415 65.35 3.30321C65.3375 3.27846 65.4875 3.00618 65.6937 2.70296C65.9 2.39355 66.35 1.71905 66.7 1.19925C67.0437 0.679446 67.3375 0.264842 67.35 0.277218C67.375 0.301971 67.2625 0.69801 66.7812 2.26979C66.6625 2.64727 66.5375 3.06806 66.5 3.21657C66.4625 3.3589 66.4125 3.47029 66.3875 3.47029C66.3625 3.4641 66.2312 3.43935 66.0938 3.40841ZM63.625 3.18563C63.6375 2.89479 64.175 -0.0693164 64.2063 0.0111291C64.2375 0.0915747 64.75 3.14851 64.75 3.2537C64.75 3.27227 64.5 3.29083 64.1875 3.29083C63.6937 3.29083 63.625 3.27846 63.625 3.18563Z" fill="#343A40"/>
</svg>
