<svg width="100" height="34" viewBox="0 0 100 34" fill="none" xmlns="http://www.w3.org/2000/svg">
<g id="Group">
<path id="Vector" d="M5.75334 24.2815C6.17593 25.3797 6.761 26.3187 7.50864 27.0985C8.25629 27.8784 9.14204 28.4752 10.1659 28.889C11.1898 29.3028 12.3031 29.5097 13.5058 29.5097C14.676 29.5097 15.773 29.2948 16.797 28.865C17.8209 28.4352 18.7148 27.8305 19.4786 27.0507C20.2424 26.2708 20.8357 25.3398 21.2583 24.2576C21.6809 23.1753 21.8921 21.9658 21.8921 20.6289V0.00244141H27.0116V33.4248H21.9409V30.3213C20.8032 31.4989 19.4623 32.4062 17.9183 33.0429C16.3743 33.6794 14.7085 33.9977 12.9207 33.9977C11.1004 33.9977 9.40204 33.6874 7.82551 33.0667C6.24908 32.446 4.88378 31.5628 3.72994 30.4168C2.5761 29.2708 1.66587 27.8943 0.999563 26.2868C0.333152 24.6793 0 22.8889 0 20.9153V0.00244141H5.11951V20.6289C5.11951 21.9658 5.33075 23.1832 5.75334 24.2815ZM35.8363 0.00244141V12.1777C36.9739 11.0636 38.2904 10.1804 39.7856 9.52783C41.2808 8.87524 42.9061 8.549 44.6613 8.549C46.4817 8.549 48.188 8.88316 49.7808 9.5516C51.3736 10.22 52.7549 11.1272 53.9252 12.2732C55.0954 13.4192 56.0218 14.7719 56.7044 16.3316C57.387 17.8914 57.7282 19.5466 57.7282 21.2973C57.7282 23.0479 57.387 24.6952 56.7044 26.2389C56.0218 27.7828 55.0954 29.1277 53.9252 30.2734C52.7549 31.4194 51.3736 32.3266 49.7808 32.995C48.188 33.6635 46.4816 33.9976 44.6613 33.9976C42.906 33.9976 41.2727 33.6714 39.7613 33.0188C38.2498 32.3663 36.9251 31.483 35.7875 30.3689V33.4247H30.9118V0.00244141H35.8363ZM36.3969 24.5917C36.8357 25.6104 37.4453 26.5017 38.2254 27.2656C39.0055 28.0295 39.9156 28.6344 40.9558 29.08C41.996 29.5256 43.1174 29.7485 44.3201 29.7485C45.4903 29.7485 46.5954 29.5256 47.6355 29.08C48.6757 28.6344 49.5776 28.0297 50.3416 27.2656C51.1055 26.5018 51.7149 25.6104 52.17 24.5917C52.625 23.5732 52.8526 22.4751 52.8526 21.2973C52.8526 20.1195 52.625 19.0134 52.17 17.9789C51.7149 16.9444 51.1055 16.0452 50.3416 15.2812C49.5777 14.5174 48.6758 13.9205 47.6355 13.4908C46.5953 13.0611 45.4902 12.8461 44.3201 12.8461C43.1499 12.8461 42.0448 13.061 41.0046 13.4908C39.9645 13.9206 39.0544 14.5174 38.2742 15.2812C37.4941 16.0452 36.8765 16.9444 36.4214 17.9789C35.9664 19.0134 35.7388 20.1195 35.7388 21.2973C35.7387 22.4751 35.9582 23.5732 36.3969 24.5917ZM60.507 16.3795C61.157 14.8516 62.051 13.5068 63.1886 12.345C64.3261 11.1831 65.6752 10.268 67.2355 9.59956C68.7957 8.93113 70.486 8.59696 72.3062 8.59696C74.094 8.59696 75.7518 8.91528 77.2795 9.55181C78.8072 10.1885 80.1236 11.0718 81.2288 12.2018C82.334 13.3317 83.1955 14.6687 83.8129 16.2124C84.4306 17.7563 84.7393 19.4354 84.7393 21.2498V22.8254H64.5051C64.6677 23.8122 64.9928 24.7273 65.4803 25.5707C65.9679 26.4142 66.5773 27.1463 67.3086 27.767C68.04 28.3878 68.8689 28.8733 69.7953 29.2233C70.7217 29.5734 71.7049 29.7486 72.7451 29.7486C75.7031 29.7486 78.0923 28.5548 79.9125 26.1675L83.4718 28.7457C82.2366 30.3691 80.7089 31.6424 78.8887 32.5655C77.0683 33.4885 75.0205 33.9501 72.7452 33.9501C70.8924 33.9501 69.1616 33.6317 67.5526 32.9951C65.9436 32.3586 64.5459 31.4673 63.3595 30.3213C62.173 29.1753 61.2385 27.8305 60.5559 26.2868C59.8733 24.743 59.532 23.0639 59.532 21.2495C59.5318 19.5307 59.8569 17.9074 60.507 16.3795ZM67.3574 14.4934C65.9759 15.6234 65.0577 17.1275 64.6026 19.0055H79.7662C79.3436 17.1275 78.4416 15.6234 77.0601 14.4934C75.6786 13.3635 74.0615 12.7985 72.2088 12.7985C70.356 12.7985 68.7389 13.3635 67.3574 14.4934ZM93.9542 15.0425C92.9141 16.1565 92.3939 17.6685 92.3939 19.5784V33.4249H87.4694V9.07428H92.3451V12.0823C92.9627 11.0955 93.7672 10.3157 94.7586 9.74272C95.7499 9.16968 96.9283 8.88316 98.2936 8.88316H100V13.3713H97.9522C96.327 13.3714 94.9943 13.9284 93.9542 15.0425Z" fill="#343A40"/>
</g>
</svg>
