<svg width="100" height="34" viewBox="0 0 100 34" fill="none" xmlns="http://www.w3.org/2000/svg">
<path id="Vector" d="M65.1336 0.799561C58.0332 0.799561 51.688 4.47984 51.688 11.2794C51.688 19.0772 62.9415 19.6158 62.9415 23.5332C62.9415 25.1826 61.0513 26.6592 57.8227 26.6592C53.2408 26.6592 49.8163 24.5961 49.8163 24.5961L48.3511 31.4576C48.3511 31.4576 52.296 33.2004 57.5336 33.2004C65.2966 33.2004 71.4051 29.3393 71.4051 22.4236C71.4051 14.1837 60.1048 13.6611 60.1048 10.0252C60.1048 8.73289 61.6565 7.31718 64.8758 7.31718C68.508 7.31718 71.4716 8.81768 71.4716 8.81768L72.9056 2.19065C72.9056 2.19065 69.6811 0.799561 65.1336 0.799561ZM0.171972 1.29976L0 2.30006C0 2.30006 2.98719 2.84671 5.67758 3.9373C9.14164 5.18775 9.38849 5.91578 9.97187 8.17684L16.3292 32.6845H24.8516L37.9807 1.29976H29.478L21.0417 22.6384L17.5993 4.55071C17.2836 2.48064 15.6844 1.29976 13.7269 1.29976H0.171972ZM41.3997 1.29976L34.7296 32.6844H42.8376L49.4843 1.29966H41.3997V1.29976ZM86.6208 1.29976C84.6657 1.29976 83.6298 2.34651 82.8697 4.17564L70.9909 32.6844H79.4936L81.1386 27.9329H91.4973L92.4977 32.6844H100L93.455 1.29976H86.6208ZM87.7266 9.77894L90.2469 21.556H83.4948L87.7266 9.77894Z" fill="#343A40"/>
</svg>
