<svg width="100" height="100" viewBox="0 0 100 100" fill="none" xmlns="http://www.w3.org/2000/svg">
<g clip-path="url(#clip0_482_4441)">
<path d="M20.034 58.0559C20.034 59.6063 18.722 60.8648 17.734 60.8648H6.56197L20.614 38.7249H1.82597V42.3938H2.78997C2.78997 40.8434 3.80596 39.5888 4.79797 39.5888H14.45L0.313965 61.7249H20.698V58.0559H20.034Z" fill="#343A40"/>
<path d="M44.414 59.9338L33.542 38.7249L23.578 59.9496C23.402 60.4151 22.442 61.0029 21.082 61.0029V61.7209H26.386V61.0029C25.402 61.0029 24.346 60.5216 24.602 59.9456L26.998 54.8209H36.19L38.802 59.9338C39.098 60.4506 37.774 61.0068 36.41 61.0068V61.7249H47.45L47.454 61.0068C45.782 61.0029 44.762 60.49 44.414 59.9338ZM27.398 53.9924L31.374 45.3842L35.814 53.9924H27.398Z" fill="#343A40"/>
<path d="M48.4541 39.3877C50.0701 39.3877 51.4061 39.7979 51.4061 40.295C51.4061 44.2401 51.3981 59.6852 51.4061 59.6852C51.4061 60.2139 50.0901 60.8017 48.4701 60.8017L48.4661 61.4961H59.2741V60.8491C57.6701 60.8491 56.3701 60.2178 56.3701 59.6892V39.1943H59.4861C62.4861 39.1943 64.9181 41.6521 64.9181 44.4413C64.9181 47.2305 62.4861 49.495 59.4821 49.495H57.3261C57.3261 49.495 64.6301 60.4033 64.6421 60.4033C64.9301 60.8175 65.0741 61.5 65.0741 61.5H72.9501V60.853C71.4341 60.853 70.6421 60.2336 70.2021 59.6892L63.1701 50.6391C66.5461 50.4182 69.1581 47.7276 69.1581 44.5321C69.1581 41.1945 66.2501 38.5 62.6621 38.5H48.4541V39.3877Z" fill="#343A40"/>
<path d="M97.282 59.7089L86.41 38.5L76.446 59.7247C76.27 60.1902 75.314 60.8017 73.95 60.8017V61.4961H79.254V60.8491C78.27 60.8491 77.218 60.2967 77.47 59.7208L79.866 54.5961H89.0579L91.67 59.7089C91.97 60.2257 90.6419 60.8057 89.2779 60.8057V61.5H100.318L100.322 60.8293C98.65 60.8293 97.63 60.2652 97.282 59.7089ZM80.262 53.7676L84.2379 45.1593L88.6779 53.7676H80.262Z" fill="#343A40"/>
</g>
<defs>
<clipPath id="clip0_482_4441">
<rect width="100" height="100" fill="white"/>
</clipPath>
</defs>
</svg>
