<svg width="100" height="18" viewBox="0 0 100 18" fill="none" xmlns="http://www.w3.org/2000/svg">
<path id="Vector" d="M99.5 9.06577C99.5 4.24222 95.2583 0.5 90.0506 0.5C85.0065 0.5 80.576 4.06962 80.576 8.80454C80.576 13.2717 84.0559 16.8497 88.7431 17.4188V14.715C85.677 14.1935 83.3592 11.8284 83.3592 8.98274C83.3592 5.75646 86.3385 3.13663 90.0145 3.13663C93.6905 3.13663 96.6707 5.75646 96.6707 8.98274C96.6707 11.8069 94.3899 14.1562 91.3582 14.702V17.4104C95.8574 16.846 99.5 13.4004 99.5 9.06577ZM69.473 14.8774C66.5813 14.8774 64.1189 13.2614 63.2017 10.9971H60.2414C61.2209 14.8979 65.0677 17.5 69.6374 17.5C70.6974 17.5 71.9191 17.3927 72.9321 17.1315C75.2201 16.5474 77.7178 15.0126 77.7178 12.5906V8.29046H69.4441L69.435 10.9971H75.0719V12.2258C75.0719 13.5833 73.1092 14.3689 71.9065 14.6441C71.2604 14.7925 70.429 14.8774 69.7612 14.8774H69.473ZM75.0782 5.45044C73.8231 4.106 71.8875 3.24485 69.717 3.24485C66.2542 3.24485 63.3915 5.44111 62.9342 8.29046H60.0336C60.4122 3.86809 64.7948 0.608227 69.7531 0.608227C72.7035 0.608227 75.3511 1.74181 77.1358 3.5658L75.0782 5.45044ZM43.9497 0.963696H41.2695V17.1389H43.9045V5.05206L54.7039 17.1389H56.6666V15.1722L43.9497 0.963696ZM56.6666 0.963696H54.0307V8.81947L56.6666 11.5503V0.963696ZM33.5217 12.1232L35.9525 17.1389H39.1215L31.1713 0.964629H28.3149L28.3131 0.969294L32.2936 9.54626H27.0046L28.3863 6.75103L26.9468 3.71135L20.2481 17.1389H23.2094L25.7151 12.125L33.5226 12.1241M3.1567 0.964629H0.5V17.1389H3.13411V6.01863L9.1153 15.8925L10.6388 13.3734L3.1567 0.964629ZM10.5286 8.55543L12.0449 11.0381L15.0947 6.01863V17.138H17.7225V0.964629H15.0414L10.5286 8.55543Z" fill="#343A40"/>
</svg>
