<svg width="100" height="100" viewBox="0 0 100 100" fill="none" xmlns="http://www.w3.org/2000/svg">
<g id="Group">
<path id="Vector" fill-rule="evenodd" clip-rule="evenodd" d="M4.45167 40.9035H9.67693L9.79522 53.7789C9.79522 53.7789 9.83205 56.8895 7.96544 58.4138C6.51905 59.594 4.88175 59.6801 3.53705 59.4472C2.20272 59.2174 1.4707 58.6794 1.4707 58.6794V54.2505C1.4707 54.2505 1.9428 54.6344 2.59181 54.8414C3.24134 55.0478 3.6683 55.2113 4.2452 54.6349C4.54039 54.3402 4.51133 53.3955 4.51133 53.3955L4.45167 40.9035ZM10.0152 53.3363C10.0152 53.3363 9.28732 59.6246 16.4518 59.6246C23.068 59.6246 22.709 53.6798 22.709 53.0993C22.709 52.5198 22.6503 40.876 22.6503 40.876H17.4246L17.4546 52.8336C17.4546 52.8336 17.6015 54.694 16.3325 54.694C15.0635 54.694 15.241 52.9524 15.241 52.9524L15.1522 40.9061H9.92647L10.0152 53.3363ZM32.7517 46.3399L32.719 41.6444C32.719 41.6444 30.5188 40.5196 28.1863 40.5196C25.0103 40.5196 23.6703 42.8677 23.6703 42.8677C23.6703 42.8677 22.4537 44.562 22.8744 46.8063C23.153 48.2906 23.7092 49.0968 24.9154 50.2848C25.4653 50.827 26.5153 51.6762 26.7939 51.9548C27.0725 52.2334 28.0375 52.8342 27.8839 53.8333C27.7843 54.486 27.4206 54.9368 26.1911 54.9005C24.6373 54.8538 22.8283 53.3462 22.8283 53.3462L22.8516 58.1471C22.8516 58.1471 24.9159 59.6495 27.1187 59.608C29.5767 59.5613 30.7595 58.7499 31.5715 58.1004C32.7854 57.1297 33.7281 55.0395 33.4038 52.7434C33.0791 50.4472 31.0153 48.9401 30.4353 48.453C29.8553 47.9658 28.5568 47.0154 28.3249 46.4816C28.093 45.9483 28.5334 45.0902 29.0206 45.0207C29.5077 44.9511 30.3165 44.5543 32.7517 46.3399ZM32.9525 45.5171H36.0268V59.2049H41.2256V45.5171H44.15V40.8963H32.9525V45.5171ZM83.974 45.5171H87.0483V59.2049H92.2471V45.5171H95.1715V40.8963H83.974V45.5171ZM47.7245 59.2386H53.4291C54.6125 59.2386 60.7347 58.9611 60.7347 49.7463C60.7347 40.7406 53.9863 40.9149 53.9863 40.9149H47.7593L47.7245 59.2386ZM53.012 45.7817C53.012 45.7817 53.7435 45.7122 54.0558 45.8865C54.3697 46.0603 55.3435 46.6165 55.3435 50.2672C55.3435 53.9189 54.543 54.3719 54.0211 54.6494C53.4992 54.927 52.9773 54.7884 52.9773 54.7884L53.012 45.7817ZM67.9018 40.3925C67.9018 40.3925 60.9091 40.1492 60.9091 49.8158C60.9091 60.2819 67.9018 59.5857 67.9018 59.5857C67.9018 59.5857 75.1374 60.5252 75.1374 50.0244C75.1374 39.5235 67.9018 40.3925 67.9018 40.3925ZM67.9361 44.9127C68.4232 44.9127 69.6061 44.5657 69.6061 50.0249C69.6061 55.3788 68.2147 54.8917 67.9708 54.8917C67.7275 54.8917 66.2666 55.2403 66.2666 50.0597C66.2661 44.7389 67.4489 44.9127 67.9361 44.9127ZM78.3726 59.2039H83.6253V40.9144H78.3026L78.3726 59.2039ZM92.673 56.667C92.673 58.1139 93.8637 59.6013 95.5809 59.6013C97.0833 59.6013 98.5297 58.5331 98.5297 56.6535C98.5297 55.301 97.3941 53.7457 95.5809 53.7457C94.2284 53.7457 92.673 54.8408 92.673 56.667Z" fill="#343A40"/>
</g>
</svg>
