<svg width="59" height="57" viewBox="0 0 59 57" fill="none" xmlns="http://www.w3.org/2000/svg">
<path id="figure" d="M1 17.0652C2.0239 9.82003 8.74066 -3.26202 27.4165 2.37081C46.0924 8.00364 54.6522 23.494 56.5976 30.535C58.9525 40.2292 60.0379 58.8217 45.5395 55.6379C27.4165 51.6582 6.83621 39.1067 12.3652 24.1063C16.7885 12.1059 29.3619 17.8816 35.0957 22.2695C39.4985 26.6574 47.1982 36.3515 42.775 40.0251C37.2459 44.6171 22.809 40.0251 23.1162 32.9841C23.3619 27.3513 26.6998 25.3308 28.338 25.0247C30.693 24.6165 35.6486 24.841 36.6316 29.0044C37.8603 34.2086 37.2459 37.2699 35.0957 36.3515C32.9456 35.4331 28.9524 34.2086 29.8739 29.9228" stroke="#37B3AF"/>
</svg>
