<svg width="42" height="48" viewBox="0 0 42 48" fill="none" xmlns="http://www.w3.org/2000/svg">
<g id="Heart">
<path id="Vector 2" d="M4.10144 22.6595C9.01476 20.2457 16.8648 29.4272 20.1756 34.3197C20.1548 33.763 19.619 25.7797 19.7791 23.7439C20.0282 20.5759 21.0678 18.8646 23.2026 16.9266C25.3515 15.3595 27.5848 14.0868 30.1834 16.6649C33.4317 19.8875 33.3456 22.492 32.9683 27.1511C32.3047 35.3452 26.3297 46.3518 26.3575 47.0939C19.5359 45.7147 10.4503 39.8866 5.29543 34.8776C1.81476 30.3629 -0.811889 25.0733 4.10144 22.6595Z" stroke="#37B3AF"/>
<path id="Vector 3" d="M27.2033 11.1533V0" stroke="#37B3AF"/>
<path id="Vector 4" d="M34.4202 3.28027L31.1398 11.1532" stroke="#37B3AF"/>
<path id="Vector 5" d="M40.981 5.90479L33.108 13.1216" stroke="#37B3AF"/>
</g>
</svg>
