<svg width="16" height="16" viewBox="0 0 16 16" fill="none" xmlns="http://www.w3.org/2000/svg">
<path d="M7.06719 10.6667C7.06719 9.76667 7.14785 9.11956 7.30919 8.72533C7.47052 8.33111 7.81208 7.90044 8.33385 7.43333C8.78941 7.03333 9.13674 6.68622 9.37585 6.392C9.61496 6.09778 9.7343 5.76156 9.73385 5.38333C9.73385 4.92778 9.58119 4.55 9.27585 4.25C8.97052 3.95 8.54541 3.8 8.00052 3.8C7.43385 3.8 7.00341 3.97222 6.70919 4.31667C6.41497 4.66111 6.20652 5.01111 6.08385 5.36667L4.36719 4.63333C4.60052 3.92222 5.0283 3.30556 5.65052 2.78333C6.27274 2.26111 7.05608 2 8.00052 2C9.16719 2 10.0645 2.32511 10.6925 2.97533C11.3205 3.62556 11.6343 4.406 11.6339 5.31667C11.6339 5.87222 11.5145 6.34733 11.2759 6.742C11.0372 7.13667 10.6621 7.58378 10.1505 8.08333C9.60608 8.60556 9.27563 9.00289 9.15919 9.27533C9.04274 9.54778 8.9843 10.0116 8.98385 10.6667H7.06719ZM8.00052 14.6667C7.63385 14.6667 7.32008 14.5362 7.05919 14.2753C6.7983 14.0144 6.66763 13.7004 6.66719 13.3333C6.66719 12.9667 6.79785 12.6529 7.05919 12.392C7.32052 12.1311 7.6343 12.0004 8.00052 12C8.36719 12 8.68119 12.1307 8.94252 12.392C9.20385 12.6533 9.3343 12.9671 9.33385 13.3333C9.33385 13.7 9.20341 14.014 8.94252 14.2753C8.68163 14.5367 8.36763 14.6671 8.00052 14.6667Z" fill="#5D6469"/>
</svg>
