<svg width="318" height="200" viewBox="0 0 318 200" fill="none" xmlns="http://www.w3.org/2000/svg">
<g clip-path="url(#clip0_482_5004)">
<rect width="318" height="200" rx="24" fill="#F2F4FF"/>
<path d="M-12.257 -46.2704C-20.6729 -59.25 -25.2429 -69.1783 -38.4058 -54.5648C-54.2428 -36.9823 -18.8748 15.4983 -6.34336 31.1556C6.18813 46.8129 38.4346 64.645 39.6951 66.1687C40.7036 67.3876 74.3543 83.5662 91.1821 91.3775L94.2527 93.821L108.426 102.58L129.083 110.561C131.152 111.215 135.547 112.308 136.573 111.447C137.598 110.587 136.382 108.811 135.646 108.031C132.221 105.981 125.158 101.843 124.311 101.694C123.463 101.545 122.909 100.145 122.738 99.4646L124.645 99.8008C130.484 102.204 142.844 107.348 145.578 108.697C151.43 109.209 149.457 105.694 147.739 103.873C140.474 100.061 125.838 92.2897 125.419 91.6951C124.999 91.1006 125.865 90.4002 126.351 90.1244L135.477 94.1195C142.003 97.5837 155.563 104.602 157.597 104.96C162.521 104.787 161.188 101.111 159.906 99.2946C150.738 94.7136 132.099 85.5114 131.231 84.4907C130.362 83.4699 130.375 82.1208 131.565 82.5975C134.287 84.0897 140.028 86.8966 140.875 87.046C141.935 87.2328 152.754 92.4069 155.15 92.8165C162.123 93.425 158.926 87.7718 158.133 87.0524C156.779 85.8254 136.474 76.0759 135.24 75.6413C134.006 75.2068 124.991 70.5807 123.969 70.1835C122.946 69.7864 124.514 68.3277 125.362 68.4771C126.209 68.6265 136.205 70.1721 138.657 68.6524C141.11 67.1328 139.002 65.4597 138.477 64.7165C137.953 63.9734 127.709 62.6009 119.345 60.4754C112.654 58.7751 104.049 61.321 100.583 62.8066C100.243 62.6742 97.3819 61.6348 88.6655 58.5362C68.5218 52.5984 16.709 10.5355 16.1847 9.79239C15.6603 9.04924 -3.84102 -33.2909 -12.257 -46.2704Z" fill="#37B3AF"/>
<path d="M245.908 -117.504C244.49 -132.967 241.932 -143.646 261.388 -140.156C284.797 -135.957 289.474 -72.6142 289.307 -52.499C289.141 -32.3837 274.771 1.57705 274.722 3.55978C274.684 5.14597 258.179 38.6596 249.753 55.1975L248.847 59.0222L243.104 74.6791L231.761 93.7057C230.534 95.4964 227.746 99.065 226.403 99.0137C225.059 98.9624 224.916 96.8069 225.013 95.7356C226.442 92.0048 229.445 84.3833 230.021 83.7438C230.597 83.1042 230.166 81.6544 229.878 81.0095L228.583 82.4484C225.468 87.9432 218.91 99.6204 217.591 102.371C213.292 106.374 212.666 102.375 212.891 99.8756C216.257 92.3874 222.978 77.2287 222.94 76.4996C222.902 75.7704 221.784 75.7479 221.23 75.8278L216.51 84.6057C213.512 91.3637 207.171 105.264 205.79 106.798C201.798 109.689 200.567 105.956 200.45 103.728C204.84 94.4594 213.831 75.7058 213.883 74.3627C213.934 73.0196 213.086 71.9584 212.444 73.0674C211.223 75.9241 208.436 81.6786 207.86 82.3181C207.14 83.1175 201.817 93.8705 200.181 95.6687C195.057 100.439 194.07 93.992 194.25 92.9338C194.556 91.1289 204.522 70.9169 205.226 69.8137C205.93 68.7105 210.17 59.5009 210.73 58.5575C211.29 57.6142 209.148 57.4221 208.572 58.0616C207.996 58.7011 201.07 66.0716 198.192 66.3751C195.314 66.6786 195.938 64.0563 195.89 63.1449C195.843 62.2334 203.072 54.847 208.351 48.0199C212.574 42.5582 220.943 39.2856 224.6 38.3319C224.786 38.0175 226.398 35.4348 231.351 27.6195C243.557 10.5278 258.321 -54.6691 258.273 -55.5805C258.225 -56.492 247.326 -102.042 245.908 -117.504Z" fill="#37B3AF"/>
<path fill-rule="evenodd" clip-rule="evenodd" d="M169.828 124.549C169.913 124.204 169.958 123.844 169.958 123.474C169.958 121.003 167.944 119 165.458 119C162.973 119 160.958 121.003 160.958 123.474C160.958 123.818 160.997 124.153 161.071 124.475C136.019 127.031 127.792 153.591 125.414 161.266C125.012 162.567 124.777 163.325 124.656 163.333C124.656 163.333 122.885 163.277 122 163.333V172H207V165.066H203.458C202.888 152.495 195.307 127.442 169.828 124.549Z" fill="#1E3C8E"/>
</g>
<defs>
<clipPath id="clip0_482_5004">
<rect width="318" height="200" rx="24" fill="white"/>
</clipPath>
</defs>
</svg>
