<svg width="318" height="200" viewBox="0 0 318 200" fill="none" xmlns="http://www.w3.org/2000/svg">
<g clip-path="url(#clip0_482_4998)">
<rect width="318" height="200" rx="24" fill="#F2F4FF"/>
<path d="M259.548 16.2195C260.964 16.3322 261.825 17.8243 261.203 19.086L251.353 39.0752C250.424 40.961 247.557 40.3038 247.539 38.2007L247.434 26.0794C247.428 25.3837 247.056 24.7397 246.453 24.3807L235.949 18.1257C234.126 17.0404 235.012 14.2665 237.127 14.4349L259.548 16.2195Z" fill="#1E3C8E"/>
<path d="M-3.74618 126.312C-19.177 125.222 -29.8563 122.897 -26.1071 142.204C-21.5961 165.433 41.6018 168.771 61.6479 168.185C81.694 167.6 115.342 152.579 117.317 152.489C118.898 152.417 152.07 135.279 168.436 126.54L172.235 125.559L187.76 119.511L206.565 107.816C208.333 106.557 211.851 103.705 211.781 102.368C211.711 101.032 209.561 100.934 208.494 101.052C204.796 102.554 197.241 105.704 196.612 106.291C195.983 106.878 194.532 106.479 193.885 106.206L195.301 104.885C200.734 101.668 212.281 94.8922 215.004 93.5216C218.934 89.1557 214.94 88.6161 212.452 88.892C205.035 92.4005 190.021 99.4119 189.293 99.3891C188.566 99.3663 188.528 98.253 188.6 97.6992L197.283 92.8149C203.977 89.6881 217.742 83.0824 219.253 81.6739C222.078 77.6374 218.34 76.489 216.118 76.4194C206.941 80.985 188.375 90.3322 187.037 90.4116C185.699 90.491 184.63 89.6685 185.726 89.0056C188.556 87.7294 194.253 84.8339 194.882 84.247C195.669 83.5133 206.312 77.9868 208.082 76.3194C212.764 71.1164 206.325 70.2675 205.273 70.4684C203.479 70.8112 183.473 81.1598 182.383 81.8839C181.293 82.608 172.173 87.0237 171.241 87.6011C170.308 88.1785 170.087 86.0484 170.716 85.4615C171.346 84.8746 178.595 77.8222 178.858 74.949C179.12 72.0757 176.515 72.7524 175.606 72.7239C174.697 72.6954 167.436 80.0508 160.705 85.4512C155.32 89.7715 152.175 98.1758 151.276 101.838C150.965 102.03 148.413 103.689 140.693 108.786C123.828 121.3 59.0532 137.365 58.1442 137.337C57.2351 137.308 11.6846 127.402 -3.74618 126.312Z" fill="#37B3AF"/>
</g>
<defs>
<clipPath id="clip0_482_4998">
<rect width="318" height="200" rx="24" fill="white"/>
</clipPath>
</defs>
</svg>
