<svg width="318" height="200" viewBox="0 0 318 200" fill="none" xmlns="http://www.w3.org/2000/svg">
<g clip-path="url(#clip0_482_4992)">
<rect width="318" height="200" rx="24" fill="#F2F4FF"/>
<path d="M-69.1227 68.6561C-82.514 60.912 -91.0932 54.1405 -96.187 73.1371C-102.316 95.993 -46.9769 126.697 -28.703 134.958C-10.4291 143.22 26.3983 144.469 28.2132 145.254C29.6651 145.883 66.9931 145.021 85.533 144.341L89.3783 145.124L105.983 146.494L128.012 144.227C130.153 143.87 134.565 142.849 135.088 141.617C135.611 140.384 133.721 139.354 132.711 138.993C128.728 138.721 120.558 138.241 119.735 138.493C118.912 138.744 117.783 137.749 117.321 137.221L119.173 136.654C125.466 136.145 138.815 135.116 141.863 135.078C147.309 132.877 143.956 130.641 141.598 129.798C133.395 129.7 116.826 129.42 116.182 129.081C115.539 128.742 115.992 127.724 116.3 127.258L126.245 126.674C133.632 126.798 148.9 126.896 150.875 126.292C155.184 123.902 152.328 121.232 150.361 120.195C140.112 120.276 119.327 120.538 118.09 120.023C116.853 119.508 116.252 118.3 117.528 118.185C120.631 118.278 127.021 118.173 127.844 117.921C128.872 117.607 140.861 117.305 143.182 116.582C149.672 113.959 144.257 110.373 143.223 110.092C141.46 109.614 118.942 110.145 117.645 110.318C116.348 110.491 106.215 110.462 105.124 110.572C104.033 110.682 104.768 108.671 105.591 108.419C106.414 108.168 116.021 105.007 117.517 102.54C119.012 100.072 116.374 99.5384 115.569 99.1143C114.765 98.6902 105.014 102.118 96.5972 104.021C89.8636 105.544 83.3525 111.719 80.9386 114.616C80.5749 114.653 77.5542 115.025 68.3811 116.222C47.7372 120.076 -17.5245 106.12 -18.3291 105.696C-19.1336 105.272 -55.7315 76.4002 -69.1227 68.6561Z" fill="#37B3AF"/>
<path d="M365.123 31.6561C378.514 23.912 387.093 17.1405 392.187 36.1371C398.316 58.993 342.977 89.6969 324.703 97.9584C306.429 106.22 269.602 107.469 267.787 108.254C266.335 108.883 229.007 108.021 210.467 107.341L206.622 108.124L190.017 109.494L167.988 107.227C165.847 106.87 161.435 105.849 160.912 104.617C160.389 103.384 162.279 102.354 163.289 101.993C167.272 101.721 175.442 101.241 176.265 101.493C177.088 101.744 178.217 100.749 178.679 100.221L176.827 99.6544C170.534 99.1449 157.185 98.1164 154.137 98.078C148.691 95.8768 152.044 93.6409 154.402 92.7981C162.605 92.7004 179.174 92.4202 179.818 92.0809C180.461 91.7416 180.008 90.7243 179.7 90.258L169.755 89.6744C162.368 89.7985 147.1 89.8957 145.125 89.2918C140.816 86.9023 143.672 84.2316 145.639 83.1949C155.888 83.2757 176.673 83.5382 177.91 83.023C179.147 82.5079 179.748 81.2998 178.472 81.1846C175.369 81.2782 168.979 81.1729 168.156 80.9213C167.128 80.6068 155.139 80.3053 152.818 79.5823C146.328 76.9586 151.743 73.3729 152.777 73.0923C154.54 72.6137 177.058 73.1448 178.355 73.318C179.652 73.4911 189.785 73.4619 190.876 73.5722C191.967 73.6824 191.232 71.6708 190.409 71.4192C189.586 71.1676 179.979 68.007 178.483 65.5396C176.988 63.0721 179.626 62.5384 180.431 62.1143C181.235 61.6902 190.986 65.118 199.403 67.0213C206.136 68.5439 212.648 74.7188 215.061 77.616C215.425 77.6527 218.446 78.0253 227.619 79.2216C248.263 83.0761 313.524 69.1203 314.329 68.6962C315.134 68.2721 351.731 39.4002 365.123 31.6561Z" fill="#1E3C8E"/>
</g>
<defs>
<clipPath id="clip0_482_4992">
<rect width="318" height="200" rx="24" fill="white"/>
</clipPath>
</defs>
</svg>
