<svg width="446" height="411" viewBox="0 0 446 411" fill="none" xmlns="http://www.w3.org/2000/svg">
<path d="M400.369 14.4571C379.851 5.58084 363.493 -7.61626 311.489 5.58115C259.932 18.6652 224.939 103.328 213.55 145.086L211.453 149.031C182.562 140.424 178.351 137.197 142.837 137.197C114.788 137.197 88.9124 135.647 53.9961 152.618C23.1488 171.691 4.30288 189.915 0.547024 221.474C-4.1478 260.922 22.2154 296.426 47.4953 318.661C72.7751 340.896 131.28 360.979 133.808 363.131C135.83 364.852 196.174 381.792 226.269 389.801L232.058 392.946L258.04 403.297L294.515 410.469C298.127 410.947 305.711 411.473 307.155 409.752C308.6 408.031 306.072 405.448 304.627 404.373C298.367 401.982 285.487 397.2 284.042 397.2C282.598 397.2 281.273 395.048 280.792 393.972H284.042C294.395 396.244 316.328 401.145 321.24 402.579C331.063 401.719 326.777 396.483 323.407 393.972C310.285 389.788 283.826 381.205 282.959 380.345C282.092 379.484 283.32 378.073 284.042 377.476L300.294 381.421C312.091 385.246 336.552 392.897 340.019 392.897C348.109 391.175 344.834 385.485 342.186 382.855C325.694 377.954 292.2 368.173 290.467 366.738C288.733 365.304 288.362 363.069 290.467 363.51C295.402 365.184 305.711 368.151 307.155 368.151C308.961 368.151 328.354 373.552 332.435 373.531C344.14 372.504 337.207 364.089 335.685 363.131C333.09 361.497 296.682 351.296 294.515 350.937C292.348 350.579 276.097 345.558 274.291 345.199C272.486 344.841 274.653 341.972 276.097 341.972C277.542 341.972 294.515 341.613 298.127 338.386C301.738 335.158 297.766 333.006 296.682 331.93C295.599 330.854 278.264 331.572 263.818 330.496C252.262 329.635 238.779 336.353 233.483 339.82C232.881 339.7 227.849 338.816 212.536 336.234C177.506 332.289 120.084 310.771 119.001 309.695C117.918 308.62 81.0815 291.047 63.3856 272.04C45.6897 253.033 42.8006 230.798 44.6063 217.17C46.412 203.542 71.3307 184.177 103.111 180.232C128.535 177.076 174.376 184.655 194.118 188.839C213.139 194.218 251.395 204.977 252.262 204.977C255.151 173.776 274.629 111.096 281.514 94.1617C289.913 73.5061 323.768 26.3815 350.131 37.4989C376.494 48.6162 377.537 53.785 389.857 72.2855C403.525 92.8128 402.858 119.983 400.691 153.335C398.957 180.017 382.634 236.895 374.689 261.998C372.883 263.672 366.335 265.475 359.521 269.888C351.441 275.12 342.186 286.613 337.236 292.881C333.553 298.627 330.846 302.666 328.824 311.847C326.296 323.323 332.501 321.612 335.685 318.303C336.25 317.716 340.26 313.043 342.186 310.054C344.714 306.826 349.914 300.515 350.492 301.088C351.07 301.662 349.529 308.5 348.686 311.847C346.52 320.096 341.319 339.103 337.852 349.144C333.519 361.696 336.475 366.358 342.186 366.358C344.075 366.358 346.399 364.565 347.603 360.979C349.529 355.002 358.642 332.581 360.385 327.358C362.663 320.525 365.646 317.433 365.646 323.179C363.479 333.937 355.65 353.999 353.381 360.979C351.113 367.959 350.848 377.845 353.381 379.595C355.65 381.162 360.385 380.639 363.132 373.531C366.142 360.381 374.653 338.118 376.168 333.104C377.746 327.88 381.429 321.612 381.189 325.116C378.18 335.875 372.196 357.56 371.433 360.979C370.076 367.058 369.73 372.804 374.063 372.804C377.53 372.804 378.798 367.058 381.189 360.979L391.861 331.783C395.108 327.358 389.857 350.794 388.412 357.393C386.967 363.991 391.425 366.013 394.19 360.979C395.876 357.393 401.341 343.406 409.719 316.151C418.098 288.895 415.618 280.169 413.331 279.212C420.433 254.228 436.516 188.48 444.028 125.362C451.539 62.244 420.361 29.0834 400.369 14.4571Z" fill="#37B3AF"/>
</svg>
