<svg width="230" height="66" viewBox="0 0 230 66" fill="none" xmlns="http://www.w3.org/2000/svg">
<path d="M22.5469 28.7632H25.4531L20.2969 46.5757H17.2031L13.125 32.6069L9.09375 46.5757H6L0.84375 28.7632H3.89062L7.73438 42.3569L11.5781 28.7632H14.7188L18.6094 42.4507L22.5469 28.7632ZM28.5938 30.5444V27.7319H31.6875V30.5444H28.5938ZM28.7344 46.5757V32.5132H31.5469V46.5757H28.7344ZM40.7812 46.8101C38.3906 46.8101 36.2812 46.0601 34.7344 44.6538L36.2812 42.6382C37.4531 43.7632 39 44.3726 40.875 44.3726C42.6562 44.3726 43.7812 43.8101 43.7812 42.7319C43.7812 41.8413 43.0312 41.3257 40.4531 40.7163C36.7969 39.7788 35.3438 38.6069 35.3438 36.4507C35.3438 33.9194 37.5469 32.2788 40.875 32.2788C42.8438 32.2788 44.6719 32.8882 46.2188 34.0132L44.625 36.1226C43.5 35.1851 42.2344 34.6694 40.7344 34.6694C39.1406 34.6694 38.0625 35.2788 38.0625 36.2632C38.0625 37.1538 38.8125 37.6226 41.2031 38.2319C45.0469 39.2163 46.5 40.3882 46.5 42.5913C46.5 45.1694 44.2969 46.8101 40.7812 46.8101ZM57.2344 32.2788C60.2812 32.2788 62.3438 34.4351 62.3438 37.6694V46.5757H59.5312V38.4194C59.5312 36.0288 58.3594 34.6694 56.4375 34.6694C54.2812 34.6694 52.5 36.2632 52.5 38.5132V46.5757H49.6875V27.8257H52.5V34.4819C53.5781 33.1226 55.2656 32.2788 57.2344 32.2788Z" fill="#1E3C8E"/>
<path d="M82 31.4351H72.625V36.2632H79.8906V38.8413H72.625V46.5757H69.6719V28.7632H82V31.4351ZM95.2188 44.1382H95.7344V46.5757C95.5938 46.6226 95.2188 46.6694 94.75 46.6694C93.0156 46.6694 92.2188 46.0601 92.0312 44.4194C91.0469 45.8726 89.1719 46.8101 87.1094 46.8101C84.3438 46.8101 82.5156 45.1226 82.5156 42.6851C82.5156 39.2163 85.8438 38.4663 88.5625 38.0444C90.6719 37.7632 91.7031 37.5757 91.7031 36.4976C91.7031 35.3726 90.5312 34.6226 88.75 34.6226C87.1562 34.6226 85.6562 35.3257 84.5312 36.4976L82.7969 34.6694C84.4375 33.1226 86.4531 32.2788 88.8906 32.2788C92.2656 32.2788 94.3281 34.0132 94.3281 36.9194V43.2476C94.3281 43.8569 94.6094 44.1382 95.2188 44.1382ZM87.5781 44.5132C89.7344 44.5132 91.6094 43.0132 91.6094 41.2319V39.4038C91.0938 39.7319 90.25 39.8726 88.8906 40.1069C87.1094 40.3882 85.2812 40.6694 85.2812 42.4976C85.2812 43.8101 86.125 44.5132 87.5781 44.5132ZM104.641 46.8101C100.469 46.8101 97.6094 43.8569 97.6094 39.5444C97.6094 35.2319 100.469 32.2788 104.641 32.2788C107.688 32.2788 110.125 33.8257 110.922 36.4976L108.25 37.3413C107.641 35.7007 106.375 34.6694 104.641 34.6694C102.062 34.6694 100.469 36.5913 100.469 39.5444C100.469 42.4976 102.062 44.4194 104.641 44.4194C106.328 44.4194 107.641 43.3882 108.25 41.7476L110.922 42.5913C110.125 45.2632 107.641 46.8101 104.641 46.8101ZM122.219 34.9038H117.906V42.3101C117.906 43.7632 118.562 44.1851 119.922 44.1851C120.672 44.1851 121.281 44.1382 122.219 43.9038V46.4819C121.281 46.7163 120.297 46.8101 119.359 46.8101C116.594 46.8101 115.094 45.4507 115.094 42.8726V34.9038H112.328V32.5132H115.094L115.469 28.7632H117.906V32.5132H122.219V34.9038ZM130.938 46.8101C126.625 46.8101 123.812 43.9507 123.812 39.5444C123.812 35.2319 126.719 32.2788 130.938 32.2788C135.25 32.2788 138.062 35.1382 138.062 39.5444C138.062 43.8569 135.156 46.8101 130.938 46.8101ZM130.938 44.4194C133.516 44.4194 135.203 42.4976 135.203 39.5444C135.203 36.5913 133.516 34.6694 130.938 34.6694C128.359 34.6694 126.672 36.5913 126.672 39.5444C126.672 42.4976 128.359 44.4194 130.938 44.4194ZM148.984 32.2788C149.359 32.2788 149.688 32.3257 150.062 32.4194V35.0913C149.453 35.0444 148.797 34.9976 148.188 34.9976C145.938 34.9976 144.25 36.4507 144.25 38.7007V46.5757H141.438V32.5132H143.875L144.062 34.7632C145.094 33.2632 146.875 32.2788 148.984 32.2788ZM162.719 32.5132H165.625L160.422 47.0913C159.531 49.6226 157.984 51.4976 155.594 51.4976C152.781 51.4976 151.562 49.5288 151.562 47.3726L154.141 46.9507C154.094 48.0288 154.422 48.9663 155.641 48.9663C156.391 48.9663 156.953 48.4507 157.469 47.5132L150.859 32.5132H153.953L158.875 44.2788L162.719 32.5132Z" fill="#212529"/>
<path d="M205.994 22.3019C207.424 22.4041 208.296 23.9152 207.658 25.1842L191.83 56.6452C190.886 58.5228 188.026 57.8434 188.023 55.741L188.003 35.5026C188.002 34.7961 187.624 34.141 187.009 33.781L169.391 23.4693C167.561 22.3981 168.424 19.6184 170.54 19.7695L205.994 22.3019Z" fill="#1E3C8E"/>
</svg>
