<svg width="24" height="24" viewBox="0 0 24 24" fill="none" xmlns="http://www.w3.org/2000/svg">
<g id="Icon/content-copy/24">
<path id="Vector" d="M9 18C8.45 18 7.97933 17.8043 7.588 17.413C7.19667 17.0217 7.00067 16.5507 7 16V4C7 3.45 7.196 2.97933 7.588 2.588C7.98 2.19667 8.45067 2.00067 9 2H18C18.55 2 19.021 2.196 19.413 2.588C19.805 2.98 20.0007 3.45067 20 4V16C20 16.55 19.8043 17.021 19.413 17.413C19.0217 17.805 18.5507 18.0007 18 18H9ZM9 16H18V4H9V16ZM5 22C4.45 22 3.97933 21.8043 3.588 21.413C3.19667 21.0217 3.00067 20.5507 3 20V6H5V20H16V22H5Z" fill="#343A40"/>
</g>
</svg>
