<svg width="82" height="79" viewBox="0 0 82 79" fill="none" xmlns="http://www.w3.org/2000/svg">
<path id="figure" d="M1 23.4912C2.43705 13.348 11.8641 -4.96683 38.0758 2.91913C64.2876 10.8051 76.3013 32.4916 79.0317 42.349C82.3369 55.9209 83.8601 81.9503 63.5116 77.493C38.0758 71.9214 9.19117 54.3494 16.9512 33.3488C23.1593 16.5482 40.8062 24.6342 48.8537 30.7772C55.033 36.9203 65.8396 50.4922 59.6315 55.6352C51.8715 62.064 31.6091 55.6352 32.0402 45.7777C32.3851 37.8918 37.0699 35.0631 39.3692 34.6345C42.6744 34.0631 49.6297 34.3774 51.0092 40.2061C52.7337 47.4921 51.8715 51.7779 48.8537 50.4922C45.8359 49.2064 40.2314 47.4921 41.5247 41.4919" stroke="#37B3AF"/>
</svg>
