<svg width="37" height="36" viewBox="0 0 37 36" fill="none" xmlns="http://www.w3.org/2000/svg">
<path id="figure" d="M36 25.0688C35.3713 29.5476 31.247 37.6347 19.7793 34.1526C8.31169 30.6705 3.05569 21.0946 1.86114 16.742C0.415116 10.7492 -0.251315 -0.744293 8.65119 1.22386C19.7793 3.68405 32.4164 11.4431 29.0213 20.7161C26.3053 28.1346 18.5848 24.5641 15.064 21.8516C12.3606 19.1391 7.63269 13.1463 10.3487 10.8754C13.7437 8.03669 22.6085 10.8754 22.4199 15.228C22.269 18.7101 20.2194 19.9592 19.2135 20.1484C17.7675 20.4007 14.7245 20.2619 14.121 17.6882C13.3665 14.471 13.7437 12.5786 15.064 13.1463C16.3843 13.7141 18.8363 14.471 18.2704 17.1205" stroke="#37B3AF"/>
</svg>
