<svg width="82" height="90" viewBox="0 0 82 90" fill="none" xmlns="http://www.w3.org/2000/svg">
<g id="Heart">
<path id="Vector 2" d="M65.8511 51.2518C60.01 45.2934 44.075 54.5177 36.8376 59.8746C37.1495 59.0849 41.9626 47.8792 42.7634 44.8714C44.0095 40.1909 43.3816 37.2042 41.294 33.337C38.9982 29.9959 36.4321 27.0352 31.3907 29.4256C25.089 32.4136 23.8938 36.2014 22.0768 43.0906C18.8812 55.2067 21.8972 74.0558 21.4814 75.1086C31.9868 76.5803 47.9999 72.8028 57.9472 68.2122C65.2374 63.4844 71.6922 57.2101 65.8511 51.2518Z" stroke="#37B3AF"/>
<path id="Vector 3" d="M38.4665 23.0113L44.1147 6.97705" stroke="#37B3AF"/>
<path id="Vector 4" d="M32.0783 8.03833L32.8074 21.0179" stroke="#37B3AF"/>
<path id="Vector 5" d="M21.3174 8.48877L28.9811 22.8508" stroke="#37B3AF"/>
</g>
</svg>
