<svg width="318" height="200" viewBox="0 0 318 200" fill="none" xmlns="http://www.w3.org/2000/svg">
<g clip-path="url(#clip0_482_4969)">
<rect width="318" height="200" rx="24" fill="#F2F4FF"/>
<path d="M-33.0291 156.208C-48.4893 156.737 -59.3532 155.541 -53.6064 174.35C-46.692 196.981 16.5086 193.694 36.3837 191.017C56.2588 188.339 88.1521 169.883 90.1073 169.587C91.6715 169.35 122.871 148.839 138.233 138.437L141.909 137.064L156.717 129.427L174.197 115.83C175.823 114.393 179.024 111.189 178.814 109.867C178.605 108.545 176.457 108.672 175.408 108.902C171.887 110.782 164.703 114.704 164.139 115.354C163.574 116.003 162.089 115.758 161.418 115.554L162.688 114.093C167.755 110.326 178.531 102.38 181.095 100.732C184.547 95.979 180.519 95.8598 178.073 96.3944C171.064 100.659 156.864 109.201 156.139 109.255C155.413 109.308 155.259 108.205 155.272 107.646L163.397 101.881C169.728 98.072 182.727 90.0636 184.082 88.5049C186.47 84.1952 182.632 83.4438 180.415 83.6068C171.766 89.1066 154.279 100.343 152.957 100.562C151.634 100.781 150.485 100.075 151.506 99.3009C154.187 97.7358 159.55 94.2607 160.114 93.6112C160.82 92.7994 170.827 86.1906 172.413 84.3474C176.526 78.6835 170.033 78.5122 169.008 78.8221C167.259 79.3506 148.444 91.7336 147.436 92.5677C146.428 93.4018 137.82 98.7465 136.953 99.4182C136.086 100.09 135.643 97.9946 136.208 97.3451C136.772 96.6956 143.245 88.9241 143.205 86.0392C143.166 83.1543 140.646 84.0995 139.739 84.1662C138.832 84.2329 132.379 92.307 126.25 98.3814C121.346 103.241 119.097 111.928 118.585 115.664C118.296 115.888 115.932 117.805 108.787 123.68C93.3222 137.888 30.5817 160.637 29.6746 160.703C28.7676 160.77 -17.5689 155.679 -33.0291 156.208Z" fill="#37B3AF"/>
<path d="M246.146 43.2892C252.713 40.0626 263.207 52.3356 267.632 58.8754C267.604 58.1314 266.888 47.46 267.102 44.7387C267.435 40.504 268.825 38.2164 271.678 35.626C274.551 33.5312 277.536 31.8299 281.01 35.2761C285.352 39.5838 285.237 43.0652 284.732 49.2931C283.845 60.2463 275.858 74.9588 275.896 75.9509C266.777 74.1072 254.632 66.3168 247.742 59.6212C243.089 53.5864 239.578 46.5158 246.146 43.2892Z" stroke="#1E3C8E"/>
<path d="M277.026 27.9088V13" stroke="#1E3C8E"/>
<path d="M286.673 17.3849L282.288 27.9088" stroke="#1E3C8E"/>
<path d="M295.443 20.8929L284.919 30.5397" stroke="#1E3C8E"/>
<path fill-rule="evenodd" clip-rule="evenodd" d="M137 117L137 110C135.304 110.245 134 111.719 134 113.5C134 115.281 135.304 116.755 137 117ZM138 110L138 117C139.696 116.755 141 115.281 141 113.5C141 111.719 139.696 110.245 138 110Z" fill="#1E3C8E"/>
<path fill-rule="evenodd" clip-rule="evenodd" d="M145 112L145 105C143.304 105.245 142 106.719 142 108.5C142 110.281 143.304 111.755 145 112ZM146 105L146 112C147.696 111.755 149 110.281 149 108.5C149 106.719 147.696 105.245 146 105Z" fill="#1E3C8E"/>
<path fill-rule="evenodd" clip-rule="evenodd" d="M150 120L150 113C148.304 113.245 147 114.719 147 116.5C147 118.281 148.304 119.755 150 120ZM151 113L151 120C152.696 119.755 154 118.281 154 116.5C154 114.719 152.696 113.245 151 113Z" fill="#1E3C8E"/>
<path fill-rule="evenodd" clip-rule="evenodd" d="M142 124L142 117C140.304 117.245 139 118.719 139 120.5C139 122.281 140.304 123.755 142 124ZM143 117L143 124C144.696 123.755 146 122.281 146 120.5C146 118.719 144.696 117.245 143 117Z" fill="#1E3C8E"/>
</g>
<defs>
<clipPath id="clip0_482_4969">
<rect width="318" height="200" rx="24" fill="white"/>
</clipPath>
</defs>
</svg>
